<svg xmlns="http://www.w3.org/2000/svg" viewBox="0 0 1365 415" role="img" aria-labelledby="title" shape-rendering="geometricPrecision">
  <title id="title">Snail Mail Full Logo Option 1 Traced</title>
  <defs>
    <filter id="soften"><feGaussianBlur stdDeviation="0"></feGaussianBlur></filter>
  </defs>
  <g fill-rule="evenodd" clip-rule="evenodd">
    <path fill="#fbca60" d="M 74.0 355.0 L 77.0 361.0 L 160.0 361.0 L 163.0 358.0 L 162.0 353.0 L 158.0 351.0 L 82.0 351.0 Z M 43.0 355.0 L 46.0 361.0 L 59.0 361.0 L 62.0 358.0 L 62.0 354.0 L 58.0 351.0 L 49.0 351.0 Z M 255.0 276.0 L 245.0 263.0 L 228.0 253.0 L 217.0 250.0 L 197.0 250.0 L 187.0 253.0 L 172.0 262.0 L 128.0 300.0 L 91.0 326.0 L 89.0 333.0 L 92.0 336.0 L 201.0 336.0 L 227.0 330.0 L 240.0 323.0 L 255.0 306.0 L 258.0 295.0 Z M 244.0 280.0 L 244.0 291.0 L 240.0 300.0 L 230.0 310.0 L 213.0 318.0 L 197.0 321.0 L 131.0 323.0 L 123.0 320.0 L 150.0 301.0 L 185.0 270.0 L 195.0 265.0 L 210.0 263.0 L 226.0 266.0 L 237.0 272.0 L 239.0 277.0 L 224.0 274.0 L 207.0 276.0 L 191.0 286.0 L 175.0 302.0 L 213.0 299.0 L 226.0 294.0 Z M 551.0 217.0 L 526.0 249.0 L 503.0 272.0 L 470.0 296.0 L 443.0 310.0 L 413.0 321.0 L 381.0 329.0 L 247.0 354.0 L 310.0 354.0 L 397.0 338.0 L 446.0 323.0 L 489.0 298.0 L 517.0 272.0 L 535.0 248.0 Z M 1100.0 215.0 L 1093.0 243.0 L 1128.0 242.0 L 1135.0 215.0 Z"></path>
    <path fill="#52d0f6" d="M 119.0 380.0 L 123.0 386.0 L 242.0 386.0 L 246.0 381.0 L 242.0 376.0 L 123.0 376.0 Z M 28.0 273.0 L 29.0 278.0 L 115.0 279.0 L 118.0 276.0 L 117.0 271.0 L 107.0 269.0 L 31.0 270.0 Z M 87.0 186.0 L 90.0 190.0 L 220.0 190.0 L 223.0 187.0 L 220.0 181.0 L 90.0 181.0 Z M 321.0 87.0 L 291.0 87.0 L 243.0 117.0 L 241.0 116.0 L 214.0 136.0 L 273.0 148.0 L 294.0 114.0 Z M 1248.0 60.0 L 1241.0 88.0 L 1275.0 88.0 L 1282.0 61.0 Z M 427.0 50.0 L 368.0 81.0 L 337.0 103.0 L 309.0 132.0 L 287.0 169.0 L 277.0 200.0 L 274.0 222.0 L 296.0 241.0 L 305.0 254.0 L 313.0 275.0 L 315.0 302.0 L 342.0 303.0 L 361.0 300.0 L 382.0 293.0 L 408.0 280.0 L 432.0 262.0 L 448.0 245.0 L 461.0 225.0 L 469.0 202.0 L 470.0 177.0 L 466.0 161.0 L 447.0 139.0 L 430.0 129.0 L 408.0 124.0 L 389.0 125.0 L 373.0 129.0 L 350.0 142.0 L 337.0 155.0 L 324.0 176.0 L 323.0 200.0 L 332.0 225.0 L 348.0 242.0 L 369.0 251.0 L 371.0 259.0 L 367.0 262.0 L 361.0 261.0 L 340.0 250.0 L 327.0 237.0 L 317.0 220.0 L 313.0 208.0 L 311.0 186.0 L 314.0 169.0 L 324.0 146.0 L 331.0 136.0 L 354.0 116.0 L 368.0 109.0 L 386.0 104.0 L 419.0 105.0 L 436.0 111.0 L 449.0 119.0 L 471.0 144.0 L 479.0 163.0 L 482.0 178.0 L 479.0 210.0 L 467.0 238.0 L 454.0 256.0 L 439.0 271.0 L 452.0 261.0 L 481.0 230.0 L 508.0 184.0 L 520.0 152.0 L 500.0 114.0 L 469.0 79.0 Z M 349.0 164.0 L 355.0 159.0 L 438.0 160.0 L 442.0 164.0 L 441.0 219.0 L 434.0 224.0 L 354.0 223.0 L 348.0 216.0 Z M 358.0 175.0 L 358.0 213.0 L 432.0 213.0 L 432.0 175.0 L 397.0 203.0 L 388.0 200.0 Z M 366.0 169.0 L 394.0 192.0 L 397.0 192.0 L 424.0 169.0 Z M 467.0 57.0 L 498.0 85.0 L 518.0 112.0 L 527.0 129.0 L 538.0 80.0 L 543.0 42.0 Z"></path>
    <path fill="#002839" d="M 1123.0 260.0 L 1089.0 260.0 L 1066.0 348.0 L 1101.0 348.0 Z M 943.0 245.0 L 937.0 269.0 L 1027.0 269.0 L 1030.0 272.0 L 1027.0 286.0 L 942.0 287.0 L 935.0 289.0 L 926.0 297.0 L 923.0 304.0 L 917.0 328.0 L 917.0 338.0 L 919.0 342.0 L 928.0 348.0 L 1045.0 348.0 L 1067.0 264.0 L 1064.0 252.0 L 1060.0 248.0 L 1048.0 244.0 Z M 952.0 322.0 L 954.0 312.0 L 958.0 308.0 L 1020.0 309.0 L 1017.0 324.0 L 955.0 325.0 Z M 54.0 220.0 L 54.0 224.0 L 57.0 227.0 L 107.0 227.0 L 111.0 223.0 L 110.0 219.0 L 107.0 217.0 L 57.0 217.0 Z M 1191.0 215.0 L 1166.0 215.0 L 1161.0 217.0 L 1154.0 224.0 L 1122.0 348.0 L 1157.0 347.0 Z M 750.0 216.0 L 717.0 348.0 L 751.0 348.0 L 769.0 277.0 L 774.0 271.0 L 805.0 346.0 L 867.0 279.0 L 877.0 272.0 L 857.0 348.0 L 892.0 348.0 L 927.0 215.0 L 888.0 215.0 L 828.0 280.0 L 818.0 287.0 L 791.0 216.0 Z M 1270.0 106.0 L 1236.0 107.0 L 1213.0 197.0 L 1246.0 197.0 Z M 1094.0 95.0 L 1088.0 119.0 L 1176.0 119.0 L 1179.0 122.0 L 1178.0 131.0 L 1176.0 136.0 L 1096.0 136.0 L 1084.0 140.0 L 1077.0 147.0 L 1074.0 155.0 L 1068.0 181.0 L 1070.0 190.0 L 1075.0 195.0 L 1080.0 197.0 L 1193.0 197.0 L 1214.0 118.0 L 1214.0 106.0 L 1208.0 98.0 L 1201.0 95.0 Z M 1103.0 172.0 L 1104.0 163.0 L 1108.0 158.0 L 1170.0 160.0 L 1166.0 174.0 L 1105.0 174.0 Z M 940.0 95.0 L 914.0 197.0 L 947.0 197.0 L 966.0 122.0 L 970.0 119.0 L 1028.0 119.0 L 1031.0 122.0 L 1013.0 197.0 L 1046.0 196.0 L 1067.0 115.0 L 1066.0 106.0 L 1060.0 98.0 L 1053.0 95.0 L 980.0 95.0 L 973.0 97.0 L 973.0 95.0 Z M 1336.0 61.0 L 1312.0 61.0 L 1306.0 64.0 L 1301.0 70.0 L 1297.0 80.0 L 1267.0 197.0 L 1295.0 197.0 L 1301.0 193.0 Z M 792.0 59.0 L 784.0 69.0 L 771.0 118.0 L 771.0 128.0 L 774.0 134.0 L 783.0 139.0 L 870.0 139.0 L 873.0 142.0 L 868.0 165.0 L 862.0 171.0 L 761.0 171.0 L 755.0 197.0 L 880.0 197.0 L 889.0 193.0 L 898.0 181.0 L 910.0 135.0 L 910.0 124.0 L 907.0 118.0 L 898.0 113.0 L 811.0 113.0 L 808.0 110.0 L 813.0 86.0 L 818.0 81.0 L 921.0 81.0 L 925.0 67.0 L 924.0 58.0 L 918.0 54.0 L 805.0 54.0 Z M 722.0 72.0 L 709.0 62.0 L 693.0 61.0 L 682.0 66.0 L 674.0 74.0 L 669.0 86.0 L 669.0 95.0 L 673.0 110.0 L 654.0 144.0 L 649.0 147.0 L 625.0 142.0 L 631.0 120.0 L 643.0 114.0 L 651.0 106.0 L 655.0 98.0 L 656.0 84.0 L 652.0 73.0 L 645.0 65.0 L 634.0 60.0 L 621.0 60.0 L 608.0 67.0 L 602.0 74.0 L 598.0 86.0 L 599.0 99.0 L 606.0 110.0 L 606.0 114.0 L 593.0 151.0 L 570.0 167.0 L 510.0 231.0 L 476.0 259.0 L 468.0 261.0 L 487.0 240.0 L 507.0 210.0 L 520.0 184.0 L 535.0 142.0 L 545.0 102.0 L 552.0 61.0 L 554.0 32.0 L 550.0 28.0 L 487.0 29.0 L 429.0 38.0 L 377.0 54.0 L 337.0 76.0 L 288.0 70.0 L 211.0 124.0 L 195.0 138.0 L 196.0 142.0 L 201.0 145.0 L 246.0 153.0 L 268.0 159.0 L 260.0 183.0 L 254.0 214.0 L 247.0 217.0 L 139.0 217.0 L 136.0 220.0 L 136.0 224.0 L 139.0 227.0 L 236.0 229.0 L 233.0 233.0 L 234.0 240.0 L 254.0 252.0 L 264.0 262.0 L 272.0 274.0 L 278.0 292.0 L 280.0 315.0 L 284.0 318.0 L 291.0 319.0 L 308.0 312.0 L 316.0 312.0 L 322.0 316.0 L 195.0 354.0 L 190.0 360.0 L 195.0 365.0 L 490.0 365.0 L 519.0 361.0 L 539.0 354.0 L 566.0 338.0 L 644.0 264.0 L 668.0 238.0 L 677.0 223.0 L 682.0 206.0 L 682.0 186.0 L 675.0 165.0 L 696.0 122.0 L 713.0 116.0 L 722.0 107.0 L 727.0 95.0 L 727.0 84.0 Z M 253.0 224.0 L 256.0 224.0 L 271.0 232.0 L 289.0 249.0 L 294.0 256.0 L 301.0 271.0 L 304.0 283.0 L 304.0 302.0 L 302.0 305.0 L 293.0 309.0 L 288.0 308.0 L 285.0 282.0 L 276.0 262.0 L 263.0 247.0 L 244.0 235.0 L 244.0 233.0 Z M 324.0 86.0 L 315.0 93.0 L 296.0 113.0 L 285.0 128.0 L 274.0 148.0 L 268.0 149.0 L 214.0 137.0 L 220.0 130.0 L 290.0 80.0 L 321.0 83.0 Z M 715.0 78.0 L 718.0 84.0 L 715.0 89.0 L 711.0 89.0 L 709.0 87.0 L 711.0 80.0 L 708.0 79.0 L 702.0 80.0 L 697.0 84.0 L 695.0 89.0 L 697.0 98.0 L 702.0 102.0 L 715.0 102.0 L 706.0 110.0 L 693.0 112.0 L 690.0 115.0 L 667.0 161.0 L 666.0 171.0 L 673.0 186.0 L 674.0 199.0 L 671.0 214.0 L 665.0 226.0 L 656.0 238.0 L 568.0 324.0 L 546.0 340.0 L 520.0 351.0 L 498.0 355.0 L 235.0 352.0 L 291.0 336.0 L 359.0 313.0 L 427.0 295.0 L 460.0 280.0 L 487.0 263.0 L 510.0 244.0 L 575.0 175.0 L 599.0 159.0 L 615.0 113.0 L 615.0 107.0 L 607.0 96.0 L 607.0 85.0 L 611.0 77.0 L 616.0 72.0 L 623.0 69.0 L 636.0 70.0 L 643.0 76.0 L 647.0 85.0 L 644.0 88.0 L 640.0 88.0 L 638.0 86.0 L 640.0 79.0 L 632.0 78.0 L 625.0 84.0 L 624.0 93.0 L 626.0 97.0 L 632.0 101.0 L 640.0 100.0 L 643.0 102.0 L 636.0 108.0 L 625.0 112.0 L 613.0 152.0 L 615.0 154.0 L 639.0 153.0 L 654.0 158.0 L 660.0 151.0 L 683.0 109.0 L 683.0 105.0 L 678.0 96.0 L 678.0 87.0 L 681.0 80.0 L 688.0 73.0 L 694.0 70.0 L 707.0 71.0 Z M 599.0 188.0 L 599.0 192.0 L 603.0 198.0 L 611.0 206.0 L 620.0 211.0 L 631.0 214.0 L 642.0 214.0 L 653.0 211.0 L 657.0 208.0 L 657.0 204.0 L 655.0 202.0 L 645.0 205.0 L 629.0 205.0 L 616.0 199.0 L 605.0 186.0 L 601.0 186.0 Z M 544.0 39.0 L 541.0 69.0 L 533.0 111.0 L 522.0 151.0 L 514.0 173.0 L 502.0 199.0 L 488.0 222.0 L 470.0 245.0 L 449.0 265.0 L 443.0 266.0 L 456.0 252.0 L 468.0 234.0 L 478.0 209.0 L 481.0 191.0 L 478.0 164.0 L 469.0 143.0 L 462.0 133.0 L 451.0 122.0 L 433.0 111.0 L 412.0 105.0 L 388.0 105.0 L 378.0 107.0 L 358.0 115.0 L 347.0 122.0 L 334.0 134.0 L 324.0 148.0 L 315.0 170.0 L 313.0 180.0 L 313.0 200.0 L 317.0 217.0 L 326.0 234.0 L 338.0 247.0 L 354.0 257.0 L 362.0 260.0 L 368.0 260.0 L 370.0 258.0 L 370.0 254.0 L 357.0 249.0 L 346.0 242.0 L 330.0 224.0 L 322.0 201.0 L 322.0 180.0 L 327.0 163.0 L 338.0 144.0 L 360.0 125.0 L 375.0 118.0 L 394.0 114.0 L 414.0 115.0 L 425.0 118.0 L 437.0 124.0 L 456.0 141.0 L 467.0 160.0 L 471.0 175.0 L 471.0 198.0 L 465.0 219.0 L 453.0 240.0 L 430.0 265.0 L 410.0 280.0 L 383.0 294.0 L 358.0 302.0 L 345.0 304.0 L 321.0 304.0 L 313.0 302.0 L 312.0 276.0 L 303.0 253.0 L 293.0 239.0 L 284.0 230.0 L 264.0 217.0 L 267.0 195.0 L 275.0 168.0 L 287.0 143.0 L 303.0 120.0 L 321.0 101.0 L 338.0 87.0 L 362.0 72.0 L 392.0 59.0 L 430.0 48.0 L 470.0 41.0 L 519.0 37.0 Z M 351.0 163.0 L 349.0 168.0 L 349.0 212.0 L 353.0 221.0 L 435.0 222.0 L 441.0 217.0 L 441.0 165.0 L 438.0 161.0 L 356.0 160.0 Z M 359.0 174.0 L 392.0 201.0 L 399.0 201.0 L 420.0 183.0 L 433.0 175.0 L 432.0 214.0 L 357.0 213.0 Z M 366.0 170.0 L 367.0 168.0 L 424.0 170.0 L 397.0 193.0 L 392.0 192.0 Z"></path>
  </g>
</svg>